<svg height="512" viewBox="-400 -400 800 800" width="512" fill-rule="evenodd" xmlns="http://www.w3.org/2000/svg"><clipPath id="clipPath"><circle cx="0" cy="0" r="400"></circle></clipPath><defs><linearGradient id="gradient8505" gradientTransform="rotate(90)"><stop offset="14.285714285714286%" stop-color="red"></stop><stop offset="28.571428571428573%" stop-color="orange"></stop><stop offset="42.857142857142854%" stop-color="yellow"></stop><stop offset="57.142857142857146%" stop-color="green"></stop><stop offset="71.42857142857143%" stop-color="blue"></stop><stop offset="85.71428571428571%" stop-color="indigo"></stop><stop offset="100%" stop-color="violet"></stop></linearGradient></defs><path clip-path="url(#clipPath)" id="onlyme" fill="url(#gradient8505)" stroke="black" fill-rule="evenodd" d=" M -150 0 A 150 150, 0, 1, 0, 150 0 A 150 150, 0, 1, 0, -150 0  M -300 0 A 300 300, 0, 1, 0, 300 0 A 300 300, 0, 1, 0, -300 0  M0, 0 C-173.20508075688772,100.00000000000003 -173.20508075688772,299.99999999999994 0,400 M0, 0 C99.99999999999999,173.20508075688775 99.99999999999999,226.79491924311225 0,400 M0, 0 C100,173.20508075688772 299.99999999999994,173.20508075688772 400,2.4492935982947064e-14 M0, 0 C173.20508075688775,-99.99999999999996 226.7949192431123,-100.00000000000006 400,2.4492935982947064e-14 M0, 0 C173.20508075688764,-100.00000000000016 173.20508075688775,-299.99999999999994 4.898587196589413e-14,-400 M0, 0 C-99.99999999999994,-173.20508075688775 -100.00000000000004,-226.79491924311233 4.898587196589413e-14,-400 M0, 0 C-99.99999999999983,-173.20508075688784 -299.99999999999994,-173.20508075688778 -400,-7.347880794884119e-14 M0, 0 C-173.20508075688772,100.00000000000003 -226.79491924311233,100.00000000000004 -400,-7.347880794884119e-14"></path></svg>